<mxfile host="app.diagrams.net" agent="Mozilla/5.0 (Windows NT 10.0; Win64; x64) AppleWebKit/537.36 (KHTML, like Gecko) Chrome/128.0.0.0 Safari/537.36 Edg/128.0.0.0" version="24.7.14">
  <diagram name="Page-1" id="xPxFhT_MbcZnOFARZW17">
    <mxGraphModel dx="630" dy="414" grid="1" gridSize="10" guides="1" tooltips="1" connect="1" arrows="1" fold="1" page="1" pageScale="1" pageWidth="850" pageHeight="1100" math="0" shadow="0">
      <root>
        <mxCell id="0" />
        <mxCell id="1" parent="0" />
        <mxCell id="p8ITnSbv12gXtY5tgMEa-1" value="" style="whiteSpace=wrap;html=1;aspect=fixed;fillStyle=solid;fillColor=#000000;fontColor=#FFFFFF;" vertex="1" parent="1">
          <mxGeometry x="320" y="520" width="480" height="480" as="geometry" />
        </mxCell>
        <mxCell id="p8ITnSbv12gXtY5tgMEa-3" style="edgeStyle=orthogonalEdgeStyle;rounded=0;orthogonalLoop=1;jettySize=auto;html=1;exitX=0.5;exitY=0.5;exitDx=0;exitDy=0;exitPerimeter=0;entryX=0.5;entryY=0.5;entryDx=0;entryDy=0;entryPerimeter=0;" edge="1" parent="1" source="p8ITnSbv12gXtY5tgMEa-2" target="p8ITnSbv12gXtY5tgMEa-2">
          <mxGeometry relative="1" as="geometry">
            <mxPoint x="290" y="700" as="targetPoint" />
            <Array as="points" />
          </mxGeometry>
        </mxCell>
        <mxCell id="p8ITnSbv12gXtY5tgMEa-2" value="Player" style="shape=umlActor;verticalLabelPosition=bottom;verticalAlign=top;html=1;outlineConnect=0;" vertex="1" parent="1">
          <mxGeometry x="240" y="760" width="30" height="60" as="geometry" />
        </mxCell>
        <mxCell id="p8ITnSbv12gXtY5tgMEa-4" value="" style="endArrow=none;html=1;rounded=0;exitX=0.5;exitY=0.5;exitDx=0;exitDy=0;exitPerimeter=0;entryX=0;entryY=0.5;entryDx=0;entryDy=0;strokeColor=#7EA6E0;" edge="1" parent="1" source="p8ITnSbv12gXtY5tgMEa-2" target="p8ITnSbv12gXtY5tgMEa-6">
          <mxGeometry width="50" height="50" relative="1" as="geometry">
            <mxPoint x="280" y="730" as="sourcePoint" />
            <mxPoint x="600" y="770" as="targetPoint" />
          </mxGeometry>
        </mxCell>
        <mxCell id="p8ITnSbv12gXtY5tgMEa-6" value="Select a Level to Play" style="ellipse;whiteSpace=wrap;html=1;fillColor=#7EA6E0;gradientColor=none;strokeColor=#6c8ebf;" vertex="1" parent="1">
          <mxGeometry x="340" y="540" width="120" height="80" as="geometry" />
        </mxCell>
        <mxCell id="p8ITnSbv12gXtY5tgMEa-9" value="Select a Map" style="ellipse;whiteSpace=wrap;html=1;fillColor=#7EA6E0;" vertex="1" parent="1">
          <mxGeometry x="340" y="710" width="120" height="80" as="geometry" />
        </mxCell>
        <mxCell id="p8ITnSbv12gXtY5tgMEa-11" value="Select a Difficulty" style="ellipse;whiteSpace=wrap;html=1;fillColor=#7EA6E0;" vertex="1" parent="1">
          <mxGeometry x="500" y="650" width="120" height="80" as="geometry" />
        </mxCell>
        <mxCell id="p8ITnSbv12gXtY5tgMEa-12" value="Select Default Level" style="ellipse;whiteSpace=wrap;html=1;fillColor=#7EA6E0;" vertex="1" parent="1">
          <mxGeometry x="610" y="540" width="120" height="80" as="geometry" />
        </mxCell>
        <mxCell id="p8ITnSbv12gXtY5tgMEa-13" value="" style="endArrow=open;html=1;rounded=0;exitX=0.5;exitY=0;exitDx=0;exitDy=0;entryX=0.5;entryY=1;entryDx=0;entryDy=0;strokeColor=#7EA6E0;endFill=0;dashed=1;" edge="1" parent="1" source="p8ITnSbv12gXtY5tgMEa-9" target="p8ITnSbv12gXtY5tgMEa-6">
          <mxGeometry width="50" height="50" relative="1" as="geometry">
            <mxPoint x="390" y="680" as="sourcePoint" />
            <mxPoint x="440" y="630" as="targetPoint" />
          </mxGeometry>
        </mxCell>
        <mxCell id="p8ITnSbv12gXtY5tgMEa-19" value="&amp;lt;&amp;lt;include&amp;gt;&amp;gt;" style="edgeLabel;html=1;align=center;verticalAlign=middle;resizable=0;points=[];labelBackgroundColor=none;fontColor=#7EA6E0;rotation=90;" vertex="1" connectable="0" parent="p8ITnSbv12gXtY5tgMEa-13">
          <mxGeometry x="-0.3724" y="1" relative="1" as="geometry">
            <mxPoint x="11" y="-12" as="offset" />
          </mxGeometry>
        </mxCell>
        <mxCell id="p8ITnSbv12gXtY5tgMEa-14" value="" style="endArrow=block;html=1;rounded=0;entryX=1;entryY=1;entryDx=0;entryDy=0;exitX=0.198;exitY=0.088;exitDx=0;exitDy=0;exitPerimeter=0;endFill=0;strokeColor=#7EA6E0;" edge="1" parent="1" source="p8ITnSbv12gXtY5tgMEa-11" target="p8ITnSbv12gXtY5tgMEa-6">
          <mxGeometry width="50" height="50" relative="1" as="geometry">
            <mxPoint x="550" y="700" as="sourcePoint" />
            <mxPoint x="600" y="650" as="targetPoint" />
          </mxGeometry>
        </mxCell>
        <mxCell id="p8ITnSbv12gXtY5tgMEa-15" value="" style="endArrow=open;html=1;rounded=0;exitX=0;exitY=0.5;exitDx=0;exitDy=0;entryX=1;entryY=0.5;entryDx=0;entryDy=0;endFill=0;dashed=1;strokeColor=#7EA6E0;" edge="1" parent="1" source="p8ITnSbv12gXtY5tgMEa-12" target="p8ITnSbv12gXtY5tgMEa-6">
          <mxGeometry width="50" height="50" relative="1" as="geometry">
            <mxPoint x="550" y="700" as="sourcePoint" />
            <mxPoint x="600" y="650" as="targetPoint" />
          </mxGeometry>
        </mxCell>
        <mxCell id="p8ITnSbv12gXtY5tgMEa-17" value="&amp;lt;&amp;lt;extend&amp;gt;&amp;gt;" style="edgeLabel;html=1;align=center;verticalAlign=middle;resizable=0;points=[];rotation=0;labelBackgroundColor=none;fontColor=#7EA6E0;" vertex="1" connectable="0" parent="p8ITnSbv12gXtY5tgMEa-15">
          <mxGeometry x="-0.3342" y="-1" relative="1" as="geometry">
            <mxPoint x="-14" y="-6" as="offset" />
          </mxGeometry>
        </mxCell>
      </root>
    </mxGraphModel>
  </diagram>
</mxfile>
